<?xml version="1.0" encoding="UTF-8" standalone="no"?>
<svg
  xmlns="http://www.w3.org/2000/svg"
   
   width="450"
   height="150"
   viewBox="0 0 119.0625 39.687501"
   version="1.1"
   id="svg8"
   >
  <defs
     id="defs2">
    <rect
       x="0"
       y="0"
       width="119.0625"
       height="39.6875"
       id="rect14" />
  </defs>
  <metadata
     id="metadata5">
    </metadata>
  <g
     id="layer1">
    <path
       id="rect10"
       style="fill:#000000;fill-rule:evenodd;stroke-width:1.00171"
       d="M 0 0 L 0 150 L 450 150 L 450 0 L 0 0 z M 43.310547 53.417969 C 46.110028 53.417969 48.681639 53.808593 51.025391 54.589844 C 53.369142 55.349393 55.387369 56.456162 57.080078 57.910156 C 58.794489 59.36415 60.117621 61.110459 61.050781 63.150391 C 62.005643 65.190323 62.484375 67.480467 62.484375 70.019531 L 62.484375 70.996094 L 62.484375 71.939453 L 49.560547 71.939453 C 49.560547 70.528862 49.332683 69.259332 48.876953 68.130859 C 48.421224 67.002386 47.737631 66.113933 46.826172 65.462891 C 45.914713 64.811849 44.786893 64.486328 43.441406 64.486328 C 42.074218 64.486328 40.902344 64.865451 39.925781 65.625 C 38.970919 66.362848 38.231771 67.458115 37.710938 68.912109 C 37.211805 70.366103 36.962891 72.167967 36.962891 74.316406 L 36.962891 78.451172 C 36.962891 80.577909 37.211805 82.368272 37.710938 83.822266 C 38.231771 85.27626 38.970919 86.383029 39.925781 87.142578 C 40.902344 87.880426 42.074218 88.248047 43.441406 88.248047 C 44.786893 88.248047 45.914713 87.922526 46.826172 87.271484 C 47.737631 86.598741 48.421224 85.698785 48.876953 84.570312 C 49.332683 83.44184 49.560547 82.17231 49.560547 80.761719 L 62.484375 80.761719 L 62.484375 81.771484 L 62.484375 82.748047 C 62.484375 86.090063 61.659072 89.008245 60.009766 91.503906 C 58.38216 93.977866 56.124568 95.898437 53.238281 97.265625 C 50.351995 98.632813 47.043188 99.316406 43.310547 99.316406 C 38.926863 99.316406 35.215931 98.449003 32.177734 96.712891 C 29.161239 94.976778 26.871095 92.544924 25.308594 89.419922 C 23.746093 86.273218 22.964844 82.585289 22.964844 78.353516 L 22.964844 74.349609 C 22.964844 70.096134 23.746093 66.406252 25.308594 63.28125 C 26.871095 60.156248 29.161239 57.735895 32.177734 56.021484 C 35.215931 54.285372 38.926863 53.417969 43.310547 53.417969 z M 131.78711 53.417969 C 135.97548 53.417969 139.40495 54.113063 142.07422 55.501953 C 144.76519 56.869142 146.75087 58.626952 148.03125 60.775391 C 149.33333 62.92383 149.98438 65.158419 149.98438 67.480469 L 137.61328 67.480469 C 137.59158 66.851128 137.37522 66.221138 136.96289 65.591797 C 136.55056 64.940755 135.92057 64.398872 135.07422 63.964844 C 134.22786 63.509114 133.1441 63.28125 131.82031 63.28125 C 130.0842 63.28125 128.82422 63.627821 128.04297 64.322266 C 127.26172 64.995009 126.87109 65.80881 126.87109 66.763672 C 126.87109 67.718534 127.38238 68.467231 128.40234 69.009766 C 129.44401 69.530599 130.8648 69.932726 132.66602 70.214844 L 138.36328 71.09375 C 140.42491 71.39757 142.41059 72.004557 144.32031 72.916016 C 146.23004 73.827475 147.80208 75.19466 149.03906 77.017578 C 150.27604 78.840496 150.89453 81.281899 150.89453 84.341797 C 150.89453 87.228084 150.18989 89.801648 148.7793 92.058594 C 147.39041 94.31554 145.27452 96.0944 142.43164 97.396484 C 139.58876 98.676867 135.99653 99.316406 131.65625 99.316406 C 128.01041 99.316406 124.96202 98.904731 122.50977 98.080078 C 120.07921 97.233723 118.13759 96.115452 116.68359 94.726562 C 115.2296 93.315971 114.18793 91.764975 113.55859 90.072266 C 112.92925 88.379556 112.61328 86.675348 112.61328 84.960938 L 125.43945 84.960938 C 125.46115 85.481771 125.61241 86.002604 125.89453 86.523438 C 126.17665 87.02257 126.59028 87.4898 127.13281 87.923828 C 127.67535 88.336155 128.34744 88.671224 129.15039 88.931641 C 129.95334 89.170356 130.88585 89.291016 131.94922 89.291016 C 133.33811 89.291016 134.43533 89.128255 135.23828 88.802734 C 136.06293 88.477213 136.64887 88.054037 136.99609 87.533203 C 137.36502 86.990668 137.54883 86.41428 137.54883 85.806641 C 137.54883 84.656466 137.00695 83.833117 135.92188 83.333984 C 134.85851 82.813151 133.32856 82.378472 131.33203 82.03125 L 125.96094 81.087891 C 123.53038 80.653863 121.35894 79.926216 119.44922 78.90625 C 117.5395 77.886284 116.0421 76.475045 114.95703 74.673828 C 113.87196 72.872612 113.33008 70.605471 113.33008 67.871094 C 113.33008 64.811196 114.09983 62.207033 115.64062 60.058594 C 117.18142 57.888453 119.32986 56.239801 122.08594 55.111328 C 124.86372 53.982855 128.09787 53.417969 131.78711 53.417969 z M 79.410156 54.134766 L 96.728516 54.134766 L 110.07422 98.568359 L 95.492188 98.568359 L 93.570312 90.169922 L 81.429688 90.169922 L 79.443359 98.568359 L 65.933594 98.568359 L 79.410156 54.134766 z M 158.12109 54.134766 L 171.79297 54.134766 L 171.79297 70.898438 L 184.65234 70.898438 L 184.65234 54.134766 L 198.32422 54.134766 L 198.32422 98.568359 L 184.65234 98.568359 L 184.65234 81.738281 L 171.79297 81.738281 L 171.79297 98.568359 L 158.12109 98.568359 L 158.12109 54.134766 z M 207.4707 54.134766 L 239.14453 54.134766 L 239.14453 64.648438 L 220.98047 64.648438 L 220.98047 71.646484 L 237.93945 71.646484 L 237.93945 81.152344 L 220.98047 81.152344 L 220.98047 88.052734 L 239.14453 88.052734 L 239.14453 98.568359 L 207.4707 98.568359 L 207.4707 54.134766 z M 247.31445 54.134766 L 257.56836 54.134766 L 272.70508 75.619141 L 273.22656 75.619141 L 273.22656 54.134766 L 285.75781 54.134766 L 285.75781 98.568359 L 275.60156 98.568359 L 260.36719 76.693359 L 259.84766 76.693359 L 259.84766 98.568359 L 247.31445 98.568359 L 247.31445 54.134766 z M 294.83984 54.134766 L 314.14453 54.134766 C 318.96224 54.134766 322.86849 55.046223 325.86328 56.869141 C 328.85807 58.692059 331.04861 61.252168 332.4375 64.550781 C 333.84809 67.827693 334.55469 71.668834 334.55469 76.074219 C 334.55469 80.544708 333.83854 84.472003 332.40625 87.857422 C 330.97396 91.242841 328.74892 93.881509 325.73242 95.769531 C 322.73763 97.635852 318.87544 98.568359 314.14453 98.568359 L 294.83984 98.568359 L 294.83984 54.134766 z M 341.58594 54.134766 L 373.25781 54.134766 L 373.25781 64.648438 L 355.09375 64.648438 L 355.09375 71.646484 L 372.05469 71.646484 L 372.05469 81.152344 L 355.09375 81.152344 L 355.09375 88.052734 L 373.25781 88.052734 L 373.25781 98.568359 L 341.58594 98.568359 L 341.58594 54.134766 z M 381.42969 54.134766 L 391.68359 54.134766 L 406.82031 75.619141 L 407.33984 75.619141 L 407.33984 54.134766 L 419.87305 54.134766 L 419.87305 98.568359 L 409.7168 98.568359 L 394.48242 76.693359 L 393.96094 76.693359 L 393.96094 98.568359 L 381.42969 98.568359 L 381.42969 54.134766 z M 308.51172 64.648438 L 308.51172 88.052734 L 311.63672 88.052734 C 313.26432 88.052734 314.64301 87.815322 315.77148 87.337891 C 316.92166 86.86046 317.84462 86.144315 318.53906 85.189453 C 319.23351 84.21289 319.74284 82.996963 320.06836 81.542969 C 320.39388 80.088975 320.55664 78.396269 320.55664 76.464844 C 320.55664 73.882377 320.26367 71.712892 319.67773 69.955078 C 319.0918 68.197264 318.14779 66.872179 316.8457 65.982422 C 315.54362 65.092664 313.80686 64.648438 311.63672 64.648438 L 308.51172 64.648438 z M 87.255859 65.429688 L 83.675781 80.566406 L 91.390625 80.566406 L 87.939453 65.429688 L 87.255859 65.429688 z "
       transform="scale(0.26458333)" />
    <text
       xml:space="preserve"
       id="text12"
       style="fill:black;fill-opacity:1;line-height:1.25;stroke:none;font-family:sans-serif;font-style:normal;font-weight:normal;font-size:10.58333333000000032px;white-space:pre;shape-inside:url(#rect14);" />
  </g>
</svg>
